name D:\school\WTK\thesis\model\3dpredictsim\Results\debug_batch\Pog_s1_tmt_aCst_d00_k500_ig24_pas.mot
datacolumns 128
datarows 4
range 0.56264295 0.59640152
endheader
time	pelvis_tilt	pelvis_list	pelvis_rotation	pelvis_tx	pelvis_ty	pelvis_tz	hip_flexion_l	hip_adduction_l	hip_rotation_l	hip_flexion_r	hip_adduction_r	hip_rotation_r	knee_angle_l	knee_angle_r	ankle_angle_l	ankle_angle_r	subtalar_angle_l	subtalar_angle_r	tmt_angle_l	tmt_angle_r	mtp_angle_l	mtp_angle_r	lumbar_extension	lumbar_bending	lumbar_rotation	arm_flex_l	arm_add_l	arm_rot_l	arm_flex_r	arm_add_r	arm_rot_r	elbow_flex_l	elbow_flex_r	pro_sup_l	pro_sup_r	glut_med1_l/activation	glut_med2_l/activation	glut_med3_l/activation	glut_min1_l/activation	glut_min2_l/activation	glut_min3_l/activation	semimem_l/activation	semiten_l/activation	bifemlh_l/activation	bifemsh_l/activation	sar_l/activation	add_long_l/activation	add_brev_l/activation	add_mag1_l/activation	add_mag2_l/activation	add_mag3_l/activation	tfl_l/activation	pect_l/activation	grac_l/activation	glut_max1_l/activation	glut_max2_l/activation	glut_max3_l/activation	iliacus_l/activation	psoas_l/activation	quad_fem_l/activation	gem_l/activation	peri_l/activation	rect_fem_l/activation	vas_med_l/activation	vas_int_l/activation	vas_lat_l/activation	med_gas_l/activation	lat_gas_l/activation	soleus_l/activation	tib_post_l/activation	flex_dig_l/activation	flex_hal_l/activation	tib_ant_l/activation	per_brev_l/activation	per_long_l/activation	per_tert_l/activation	ext_dig_l/activation	ext_hal_l/activation	ercspn_l/activation	intobl_l/activation	extobl_l/activation	glut_med1_r/activation	glut_med2_r/activation	glut_med3_r/activation	glut_min1_r/activation	glut_min2_r/activation	glut_min3_r/activation	semimem_r/activation	semiten_r/activation	bifemlh_r/activation	bifemsh_r/activation	sar_r/activation	add_long_r/activation	add_brev_r/activation	add_mag1_r/activation	add_mag2_r/activation	add_mag3_r/activation	tfl_r/activation	pect_r/activation	grac_r/activation	glut_max1_r/activation	glut_max2_r/activation	glut_max3_r/activation	iliacus_r/activation	psoas_r/activation	quad_fem_r/activation	gem_r/activation	peri_r/activation	rect_fem_r/activation	vas_med_r/activation	vas_int_r/activation	vas_lat_r/activation	med_gas_r/activation	lat_gas_r/activation	soleus_r/activation	tib_post_r/activation	flex_dig_r/activation	flex_hal_r/activation	tib_ant_r/activation	per_brev_r/activation	per_long_r/activation	per_tert_r/activation	ext_dig_r/activation	ext_hal_r/activation	ercspn_r/activation	intobl_r/activation	extobl_r/activation	
          0.56264295	         -2.92506086	          2.47148120	         -6.54998653	          0.70330368	          0.85413948	          0.00363153	         32.04817831	          3.19484042	         -3.18062541	        -18.21304344	         -2.19643142	          8.04750381	        -14.63740704	         -9.32537222	          6.26043693	         -1.17686641	         -3.32813866	         11.55531668	          0.06726984	          3.24270724	         -0.09027384	         22.91634051	         -2.08401888	         -0.95967851	          2.16748057	        -10.33393632	        -13.57420127	          6.02742960	          7.43091375	        -13.46743598	         17.39430146	         15.09473983	         41.38390762	         86.51662706	         86.51662706	          0.05937733	          0.05937738	          0.05000048	          0.05937770	          0.05937763	          0.05937573	          0.06104721	          0.05937774	          0.30117635	          0.05000800	          0.05000118	          0.14023652	          0.31432127	          0.11188223	          0.18347031	          0.12224102	          0.05000056	          0.08133406	          0.11793910	          0.05000133	          0.05000171	          0.13114343	          0.05938495	          0.06562795	          0.41058072	          0.23825905	          0.13152584	          0.05000223	          0.13972022	          0.14727440	          0.12626876	          0.05575889	          0.05361493	          0.05937731	          0.05000007	          0.05000116	          0.05000126	          0.57882814	          0.34763941	          0.20241612	          0.29350580	          0.55684772	          0.32025792	          0.05937739	          0.09399865	          0.08930380	          0.24647351	          0.08640046	          0.05077885	          0.28961919	          0.19258586	          0.09618081	          0.05000917	          0.05000081	          0.05000060	          0.07051468	          0.10079966	          0.10709114	          0.15547890	          0.05000897	          0.05000994	          0.05000299	          0.30689541	          0.11126329	          0.05000691	          0.05000485	          0.05000315	          0.05000308	          0.38821533	          0.60151807	          0.05000070	          0.05000220	          0.05000090	          0.25615821	          0.05013643	          0.05011229	          0.12355595	          0.28640430	          0.38541077	          0.28484956	          0.24088262	          0.25801990	          0.33095354	          0.05000006	          0.05939274	          0.15023511	          0.05000031	          0.05000009	          0.05000034	          0.05000051	          0.05000107	          0.06430276	
          0.57389581	         -2.91501486	          2.57509389	         -6.80417482	          0.72075656	          0.85311150	          0.00339469	         31.41376469	          3.61581580	         -2.96457164	        -17.93287730	         -2.52109584	          7.84114342	        -15.04008226	        -11.53977510	          5.53884959	         -2.13443909	         -3.82427279	         12.68098099	          0.02942090	          2.67328426	         -0.06773231	         24.06896563	         -1.84786323	         -1.19974653	          2.25762118	        -11.51833391	        -13.55930082	          5.89299287	          7.13107408	        -13.48677136	         17.59552886	         15.01155022	         42.61183827	         86.51662706	         86.51662706	          0.05000007	          0.05000025	          0.12520052	          0.05000035	          0.05000035	          0.05000034	          0.05140624	          0.05000068	          0.25361213	          0.05000025	          0.05002853	          0.11808954	          0.26468195	          0.36849300	          0.24056928	          0.12905740	          0.05000217	          0.06850542	          0.09931634	          0.08393462	          0.11295027	          0.13551479	          0.05000659	          0.05937811	          0.54944981	          0.20063134	          0.11075437	          0.05937943	          0.18849576	          0.20314377	          0.16991956	          0.05000047	          0.05000155	          0.05000008	          0.05937726	          0.07052341	          0.07051358	          0.53119582	          0.40319921	          0.24658830	          0.24715324	          0.55980123	          0.26968030	          0.05000006	          0.07915360	          0.07520021	          0.20754848	          0.07275545	          0.05937697	          0.24388037	          0.16217125	          0.08099126	          0.05000895	          0.05000184	          0.05000525	          0.05937848	          0.08488096	          0.21299952	          0.23159775	          0.13671910	          0.05938357	          0.05938142	          0.25842835	          0.09370100	          0.05000913	          0.05008543	          0.05936416	          0.05937761	          0.32690522	          0.54960402	          0.05937740	          0.05937754	          0.05001022	          0.21570362	          0.14024188	          0.14024255	          0.14024121	          0.24117291	          0.32454346	          0.23986370	          0.20284054	          0.21727178	          0.27868693	          0.05000013	          0.05001310	          0.14074801	          0.05000036	          0.05000024	          0.05000058	          0.06549676	          0.06207416	          0.05614055	
          0.58514867	         -2.90073561	          2.67923485	         -7.02222630	          0.73845499	          0.85204478	          0.00317523	         30.58207345	          3.95090808	         -2.69867272	        -17.56555606	         -2.82694671	          7.61597601	        -15.57533616	        -13.88526824	          5.03368013	         -3.26399391	         -4.35131836	         13.71400556	         -0.02897141	          2.06308207	         -0.19181995	         24.97818610	         -1.59365141	         -1.44514764	          2.33639429	        -12.68419521	        -13.55153525	          5.83684484	          6.74102366	        -13.50714425	         17.71524782	         14.92666546	         43.81241547	         86.51662706	         86.51662706	          0.27952122	          0.29593354	          0.37008897	          0.43034746	          0.25787052	          0.19691784	          0.07556463	          0.08983446	          0.21355966	          0.08373841	          0.05002177	          0.09944003	          0.22288139	          0.31029783	          0.20257733	          0.15111726	          0.05000094	          0.05771781	          0.11501043	          0.20386814	          0.17432713	          0.11443261	          0.05000293	          0.05000132	          0.46267621	          0.16894643	          0.24907804	          0.05000181	          0.15872719	          0.17106204	          0.14308469	          0.05000241	          0.05000254	          0.05381528	          0.05000022	          0.05938601	          0.05937782	          0.58682118	          0.42487904	          0.20764599	          0.56984673	          0.62447399	          0.30944156	          0.06924587	          0.09566247	          0.06332398	          0.29227333	          0.06126536	          0.05000015	          0.33888330	          0.13656013	          0.06820059	          0.06339318	          0.05000036	          0.05000027	          0.05000136	          0.07147774	          0.17936112	          0.19502229	          0.11512749	          0.05000601	          0.05000383	          0.27324027	          0.08152252	          0.05000126	          0.05000281	          0.05000164	          0.05000135	          0.27527794	          0.50980291	          0.05000028	          0.05000121	          0.05000033	          0.18163792	          0.11809381	          0.11809437	          0.11809324	          0.20308484	          0.27328883	          0.20198239	          0.17080631	          0.18295870	          0.23467455	          0.09459921	          0.15982352	          0.18217167	          0.05000280	          0.15513908	          0.05000224	          0.07855337	          0.05227090	          0.05000019	
          0.59640152	         -2.88425328	          2.77172657	         -7.19808031	          0.75614228	          0.85097021	          0.00292674	         29.66865975	          4.26535797	         -2.43127791	        -17.08094459	         -3.10210954	          7.38491357	        -16.05181980	        -16.39458209	          4.70794467	         -4.48267670	         -4.90013605	         14.65690058	         -0.04568660	          1.46409225	         -0.18966562	         25.37251793	         -1.34687468	         -1.68198501	          2.40380480	        -13.77232533	        -13.54556881	          5.86850527	          6.30849423	        -13.53692030	         17.78329459	         14.80488136	         44.95468120	         86.51662706	         86.51662706	          0.40772564	          0.44742601	          0.50298532	          0.36238606	          0.22968242	          0.40490351	          0.07867646	          0.12089301	          0.17983257	          0.07051416	          0.05000106	          0.08373579	          0.18768239	          0.26129455	          0.25142307	          0.18391350	          0.05000079	          0.05062193	          0.13384296	          0.28952907	          0.22499431	          0.18319971	          0.05000044	          0.05000040	          0.38960662	          0.14226530	          0.27022368	          0.05000010	          0.18980384	          0.23786497	          0.18141382	          0.05000007	          0.05000014	          0.05000002	          0.05000005	          0.05000754	          0.05000074	          0.69540820	          0.35777869	          0.17485287	          0.65922396	          0.64519865	          0.43395562	          0.09366804	          0.08055467	          0.05332336	          0.24611520	          0.05158998	          0.05000026	          0.28536425	          0.11499363	          0.05743005	          0.08673854	          0.05000166	          0.05000220	          0.05000046	          0.06018987	          0.20278513	          0.23819722	          0.09695178	          0.05002294	          0.12229925	          0.23008910	          0.06864986	          0.05000225	          0.05000714	          0.05000501	          0.05000299	          0.23180379	          0.44290779	          0.05000049	          0.05000201	          0.05000051	          0.15295214	          0.09944357	          0.09944402	          0.09944307	          0.17101196	          0.23012878	          0.17008362	          0.14383126	          0.15406476	          0.19761314	          0.18491816	          0.17489125	          0.16125055	          0.05000286	          0.26550966	          0.14008766	          0.10568171	          0.05000007	          0.05000013	
